# xmcd
#
# Track frame offsets:
# 150
# 24134
# 47438
#
# Disc length: 1037 seconds
#
# Revision: 0
# Processed by: cddbd v1.4PL0 Copyright (c) Steve Scherf et al.
# Submitted via: Audion 3.0.2 (http://www.panic.com/audion/)
#
DISCID=13040b03
DTITLE=Vari - misto
DYEAR=1900
DGENRE=
TTITLE0=Open invitation
TTITLE1=Good Clean Fin
TTITLE2=Gamblers Rool
EXTD=
EXTT0=
EXTT1=
EXTT2=
PLAYORDER=
